<?xml version="1.0"?><svg width="640" height="480" xmlns="http://www.w3.org/2000/svg">
 <title>Pink Rabbit</title>
 <g>
  <title>Layer 1</title>
  <path fill="#b3e8f9" d="m335.943115,30.57645c-9.793121,-0.146111 -17.3909,4.439468 -17.3909,13.789761c0,11.508038 -2.910187,60.415459 1.405304,76.238953c4.315552,15.823547 21.585846,38.972153 34.518341,54.675964c10.069458,12.227264 4.347717,41.696259 4.347717,56.081299c0,14.384995 -2.897491,25.910706 -8.65152,25.910706c-5.754028,0 -14.359711,5.752167 -20.113739,11.506104c-5.753937,5.754028 -11.515869,12.956329 -18.708405,7.202301c-7.192505,-5.754028 -20.15387,-11.494415 -43.169861,-15.809906c-23.016098,-4.315521 -61.841293,-0.023407 -86.295837,8.607605c-24.454575,8.631042 -76.258568,56.110626 -90.643524,77.688202c-14.385063,21.577515 -15.799194,87.732483 -14.36068,97.801941c1.438507,10.069519 -2.908272,17.282562 -10.100784,8.65152c-7.192459,-8.631042 -12.911438,-4.303802 -12.911438,-4.303802c0,0 -7.20229,14.370453 -7.20229,21.562988c0,7.192444 2.854561,14.360687 2.854561,14.360687c0,0 -11.506092,8.650543 -11.506092,14.404572c0,5.753967 11.515881,15.830414 18.708389,24.461456c7.192543,8.630981 31.651184,25.899963 41.720619,24.461487c10.069542,-1.438538 28.775063,-0.012085 35.967575,4.303772c7.19252,4.315552 24.446869,10.067627 46.024429,11.506104c21.577515,1.438538 81.978439,5.753113 97.801926,5.753113c15.823578,0 20.167511,-2.86438 27.359955,-10.056885c7.192535,-7.192444 -5.785248,-15.841187 -10.100769,-25.910706c-4.315521,-10.069458 14.403625,-7.169128 20.157623,-8.607666c5.754028,-1.438477 21.594238,-11.506104 31.663788,-11.506104c10.069519,0 8.616486,10.055908 21.562958,15.809937c12.946533,5.753967 31.639404,24.439026 46.024445,27.31604c14.384949,2.876953 47.47171,0.012085 58.979797,-4.303833c11.507965,-4.315491 10.069458,-14.370422 0,-21.562927c-10.06955,-7.192444 -34.506653,-20.16745 -38.822144,-27.359955c-4.315521,-7.192474 -5.743286,-15.819702 1.449219,-23.012238c7.192535,-7.192535 14.358765,-4.302917 25.866791,-10.056854c11.508057,-5.754028 15.809906,-23.043549 15.809906,-33.113007c0,-10.06955 1.369293,-21.013519 5.753082,-27.31604c3.673462,-5.281281 5.100159,-22.132111 5.304993,-33.640076c0.21875,-12.288635 -5.293304,-15.248718 -9.608826,-22.441223c-4.31543,-7.192444 4.302856,-17.259155 10.056885,-17.259155c5.754028,0 31.651093,-4.336029 41.720612,-8.65155c10.069458,-4.31546 20.167419,-23.032715 27.359985,-31.663757c7.192444,-8.630951 1.417969,-27.315125 -8.65155,-33.069061c-10.06958,-5.754028 -10.077454,-21.59433 -18.708435,-31.663788c-8.631042,-10.069534 -18.685059,-31.629608 -27.31604,-38.822128c-8.631012,-7.192535 -28.775024,-12.955353 -35.967529,-12.955353c-7.192535,0 -11.506134,0.0009 -11.506134,-5.753052c0,-5.754028 -1.449249,-12.920303 -1.449249,-25.866791c0,-12.946548 -16.243439,-68.464554 -37.372894,-102.149643c-4.40799,-7.02729 -11.558105,-5.405319 -20.157654,-2.898491c-5.694122,1.659863 -8.607605,4.35564 -8.607605,23.056137c0,18.700562 -11.505157,-0.031326 -17.259155,-10.100796c-5.754028,-10.069511 -15.862671,-21.584442 -28.809204,-24.46146c-2.42749,-0.53941 -4.766663,-0.80069 -7.026642,-0.8344z" id="rabbit"/>
 </g>
</svg>